<?xml version="1.0" encoding="UTF-8"?>
<!-- Do not edit this file with editors other than draw.io -->
<!DOCTYPE svg PUBLIC "-//W3C//DTD SVG 1.1//EN" "http://www.w3.org/Graphics/SVG/1.1/DTD/svg11.dtd">
<svg xmlns="http://www.w3.org/2000/svg" xmlns:xlink="http://www.w3.org/1999/xlink" version="1.1" width="521px" height="80px" viewBox="-0.5 -0.5 521 80" content="&lt;mxfile host=&quot;app.diagrams.net&quot; modified=&quot;2024-06-29T09:10:09.974Z&quot; agent=&quot;Mozilla/5.0 (X11; Linux x86_64; rv:127.0) Gecko/20100101 Firefox/127.0&quot; etag=&quot;C4TY4w--n-s4yVS3RN1m&quot; version=&quot;24.6.4&quot; type=&quot;device&quot;&gt;&#xA;  &lt;diagram name=&quot;Page-1&quot; id=&quot;cR227iO7XRGGTlyPKTdB&quot;&gt;&#xA;    &lt;mxGraphModel dx=&quot;1179&quot; dy=&quot;1022&quot; grid=&quot;0&quot; gridSize=&quot;10&quot; guides=&quot;1&quot; tooltips=&quot;1&quot; connect=&quot;1&quot; arrows=&quot;1&quot; fold=&quot;1&quot; page=&quot;0&quot; pageScale=&quot;1&quot; pageWidth=&quot;850&quot; pageHeight=&quot;1100&quot; background=&quot;none&quot; math=&quot;0&quot; shadow=&quot;0&quot;&gt;&#xA;      &lt;root&gt;&#xA;        &lt;mxCell id=&quot;0&quot; /&gt;&#xA;        &lt;mxCell id=&quot;1&quot; parent=&quot;0&quot; /&gt;&#xA;        &lt;mxCell id=&quot;A2KgJJBR1Pn5u5TtWlUK-12&quot; value=&quot;&quot; style=&quot;endArrow=none;html=1;rounded=0;strokeColor=#D1FEFF;strokeWidth=2;&quot; edge=&quot;1&quot; parent=&quot;1&quot;&gt;&#xA;          &lt;mxGeometry width=&quot;50&quot; height=&quot;50&quot; relative=&quot;1&quot; as=&quot;geometry&quot;&gt;&#xA;            &lt;mxPoint x=&quot;-370&quot; y=&quot;-280.5&quot; as=&quot;sourcePoint&quot; /&gt;&#xA;            &lt;mxPoint x=&quot;-220&quot; y=&quot;-279.5&quot; as=&quot;targetPoint&quot; /&gt;&#xA;          &lt;/mxGeometry&gt;&#xA;        &lt;/mxCell&gt;&#xA;        &lt;mxCell id=&quot;A2KgJJBR1Pn5u5TtWlUK-2&quot; value=&quot;&quot; style=&quot;sketch=0;aspect=fixed;pointerEvents=1;shadow=0;dashed=0;html=1;strokeColor=none;labelPosition=center;verticalLabelPosition=bottom;verticalAlign=top;align=center;fillColor=#B6CDF0;shape=mxgraph.azure.laptop&quot; vertex=&quot;1&quot; parent=&quot;1&quot;&gt;&#xA;          &lt;mxGeometry x=&quot;-460&quot; y=&quot;-315&quot; width=&quot;100&quot; height=&quot;60&quot; as=&quot;geometry&quot; /&gt;&#xA;        &lt;/mxCell&gt;&#xA;        &lt;mxCell id=&quot;A2KgJJBR1Pn5u5TtWlUK-8&quot; value=&quot;&quot; style=&quot;sketch=0;points=[[0.015,0.015,0],[0.985,0.015,0],[0.985,0.985,0],[0.015,0.985,0],[0.25,0,0],[0.5,0,0],[0.75,0,0],[1,0.25,0],[1,0.5,0],[1,0.75,0],[0.75,1,0],[0.5,1,0],[0.25,1,0],[0,0.75,0],[0,0.5,0],[0,0.25,0]];verticalLabelPosition=bottom;html=1;verticalAlign=top;aspect=fixed;align=center;pointerEvents=1;shape=mxgraph.cisco19.rect;prIcon=l2_switch;fillColor=none;strokeColor=#B6CDF0;&quot; vertex=&quot;1&quot; parent=&quot;1&quot;&gt;&#xA;          &lt;mxGeometry x=&quot;-10&quot; y=&quot;-315&quot; width=&quot;70&quot; height=&quot;70&quot; as=&quot;geometry&quot; /&gt;&#xA;        &lt;/mxCell&gt;&#xA;        &lt;mxCell id=&quot;A2KgJJBR1Pn5u5TtWlUK-13&quot; value=&quot;&quot; style=&quot;endArrow=none;html=1;rounded=0;strokeColor=#D1FEFF;strokeWidth=2;&quot; edge=&quot;1&quot; parent=&quot;1&quot;&gt;&#xA;          &lt;mxGeometry width=&quot;50&quot; height=&quot;50&quot; relative=&quot;1&quot; as=&quot;geometry&quot;&gt;&#xA;            &lt;mxPoint x=&quot;-149.41&quot; y=&quot;-280.4&quot; as=&quot;sourcePoint&quot; /&gt;&#xA;            &lt;mxPoint x=&quot;-10&quot; y=&quot;-280.03&quot; as=&quot;targetPoint&quot; /&gt;&#xA;          &lt;/mxGeometry&gt;&#xA;        &lt;/mxCell&gt;&#xA;        &lt;mxCell id=&quot;A2KgJJBR1Pn5u5TtWlUK-7&quot; value=&quot;&quot; style=&quot;sketch=0;pointerEvents=1;shadow=0;dashed=0;html=1;strokeColor=none;fillColor=#B6CDF0;labelPosition=center;verticalLabelPosition=bottom;verticalAlign=top;outlineConnect=0;align=center;shape=mxgraph.office.devices.phone_voip;&quot; vertex=&quot;1&quot; parent=&quot;1&quot;&gt;&#xA;          &lt;mxGeometry x=&quot;-229.99999999999997&quot; y=&quot;-320&quot; width=&quot;90.59&quot; height=&quot;80&quot; as=&quot;geometry&quot; /&gt;&#xA;        &lt;/mxCell&gt;&#xA;      &lt;/root&gt;&#xA;    &lt;/mxGraphModel&gt;&#xA;  &lt;/diagram&gt;&#xA;&lt;/mxfile&gt;&#xA;"><defs/><g><g data-cell-id="0"><g data-cell-id="1"><g data-cell-id="A2KgJJBR1Pn5u5TtWlUK-12"><g><path d="M 90 39.5 L 240 40.5" fill="none" stroke="#d1feff" stroke-width="2" stroke-miterlimit="10" pointer-events="stroke"/></g></g><g data-cell-id="A2KgJJBR1Pn5u5TtWlUK-2"><g><rect x="0" y="5" width="100" height="60" fill="none" stroke="none" pointer-events="all"/><path d="M 8.48 51.54 L 8.48 7.69 C 9.09 6.25 10.42 5.22 11.99 5 L 87.71 5 C 89.63 5.21 91.21 6.61 91.62 8.49 L 91.62 51.54 L 99.65 60.22 C 100 61.3 99.66 62.42 98.71 63.33 C 97.76 64.24 96.28 64.84 94.63 65 L 5.47 65 C 3.8 64.86 2.3 64.26 1.33 63.35 C 0.35 62.44 0 61.31 0.35 60.22 Z M 11.79 51.54 L 88.62 51.64 L 88.62 9.39 C 88.25 8.33 87.32 7.56 86.21 7.39 L 13.79 7.39 C 12.7 7.77 11.91 8.74 11.79 9.88 Z M 42.28 57.43 L 39.57 61.31 L 58.43 61.31 L 56.32 57.43 Z" fill="#b6cdf0" stroke="none" pointer-events="all"/></g></g><g data-cell-id="A2KgJJBR1Pn5u5TtWlUK-8"><g><rect x="450" y="5" width="70" height="70" fill="none" stroke="none" pointer-events="all"/><path d="M 454.3 5 C 451.93 5 450 6.92 450 9.28 L 450 70.72 C 450 73.08 451.93 75 454.3 75 L 515.7 75 C 518.07 75 520 73.08 520 70.72 L 520 9.28 C 520 6.92 518.07 5 515.7 5 Z" fill="none" stroke="none" pointer-events="all"/><rect x="450" y="5" width="70" height="70" fill="none" stroke="none" pointer-events="all"/><path d="M 482.73 61.73 L 482.73 56.15 L 467.89 56.15 L 467.89 51.74 L 455.26 59.2 L 467.89 66.55 L 467.89 61.73 Z M 489.65 35.04 L 489.65 29.47 L 474.82 29.47 L 474.82 25.06 L 462.18 32.52 L 474.82 39.87 L 474.82 35.04 Z M 481.33 48.49 L 481.33 42.91 L 496.17 42.91 L 496.17 38.5 L 508.8 45.97 L 496.17 53.31 L 496.17 48.49 Z M 487.74 22.25 L 487.74 16.68 L 502.58 16.68 L 502.58 12.27 L 515.21 19.73 L 502.58 27.08 L 502.58 22.25 Z M 454.3 5 C 451.93 5 450 6.92 450 9.28 L 450 70.72 C 450 73.08 451.93 75 454.3 75 L 515.7 75 C 518.07 75 520 73.08 520 70.72 L 520 9.28 C 520 6.92 518.07 5 515.7 5 Z M 454.3 6.93 L 515.7 6.93 C 517.03 6.93 518.06 7.96 518.06 9.28 L 518.06 70.72 C 518.06 72.04 517.03 73.07 515.7 73.07 L 454.3 73.07 C 452.97 73.07 451.94 72.04 451.94 70.72 L 451.94 9.28 C 451.94 7.96 452.97 6.93 454.3 6.93 Z" fill="#b6cdf0" stroke="none" pointer-events="all"/></g></g><g data-cell-id="A2KgJJBR1Pn5u5TtWlUK-13"><g><path d="M 310.59 39.6 L 450 39.97" fill="none" stroke="#d1feff" stroke-width="2" stroke-miterlimit="10" pointer-events="stroke"/></g></g><g data-cell-id="A2KgJJBR1Pn5u5TtWlUK-7"><g><rect x="230" y="0" width="90.59" height="80" fill="none" stroke="none" pointer-events="all"/><path d="M 305.8 36.77 C 308.79 37.83 310.97 39.39 312.82 41.16 C 311.76 41.73 310.65 42.3 309.36 42.79 C 308.06 39.72 306.91 38.1 305.8 36.77 Z M 310.31 45.03 C 311.88 44.39 313.37 43.65 314.73 42.81 C 317.94 46.42 318.66 48.84 319.48 51.13 C 317.22 52.66 314.86 53.96 312.23 54.75 C 311.95 51.8 311.54 48.74 310.31 45.03 Z M 312.28 57.06 C 315.28 56.17 317.84 55 319.94 53.54 C 320.59 57.61 320.31 60.05 319.86 62.2 C 316.47 64.72 313.78 65.81 311.16 66.78 C 311.52 64.72 311.87 65.67 312.28 57.06 Z M 310.4 69.65 C 312.8 68.9 315.25 68.1 318.8 65.85 C 315.66 73.24 310.24 77.05 305.5 78.66 C 307.22 76.75 308.91 74.41 310.4 69.65 Z M 307.57 70.37 C 305.23 76.46 301.88 79.25 298.99 79.89 L 298.99 71.51 C 301.98 71.44 304.84 71.07 307.57 70.37 Z M 298.98 69.24 L 298.98 59.5 C 301.9 59.58 305.71 58.92 309.83 58.02 C 309.83 62.14 309.23 65.06 308.55 67.85 C 304.7 68.88 301.73 69.15 298.98 69.24 Z M 299.12 57.06 L 299.12 47.17 C 302.17 47.01 305.15 46.6 308.05 45.75 C 309.04 48.6 309.56 51.98 309.96 55.52 C 306.62 56.46 302.97 56.92 299.12 57.06 Z M 298.88 35.39 L 299.81 35.39 C 301.96 36.1 303.5 37.77 304.36 38.86 C 305.68 40.5 306.4 42.01 307.08 43.51 C 304.89 44.12 302.33 44.68 298.87 44.81 Z M 296.61 44.92 C 293.87 44.81 291.19 44.37 288.53 43.62 C 289.42 41.45 290.57 39.48 292.14 37.83 C 293.1 36.88 294.14 36 295.66 35.5 L 296.61 35.5 Z M 296.73 57.06 C 292.63 56.91 289.06 56.38 285.9 55.52 C 286.1 52.69 286.18 49.99 287.79 45.76 C 291.36 46.87 295.49 47.18 296.75 47.15 Z M 296.61 59.39 L 296.62 69.15 C 293.48 69.24 290.34 68.7 287.19 67.9 C 286.21 64.43 285.79 61.11 285.8 57.91 C 289.34 58.88 292.96 59.33 296.61 59.39 Z M 296.61 71.65 L 296.61 80 C 294.92 79.64 293.53 78.72 292.28 77.5 C 290.32 75.52 289.01 73.11 288.01 70.71 C 290.87 71.27 293.73 71.69 296.61 71.65 Z M 285.26 69.84 C 286.88 74.71 288.58 76.75 290.29 78.72 C 282.8 75.93 279.13 70.84 277.1 66.49 C 279.77 67.87 282.44 69.24 285.26 69.84 Z M 275.86 62.92 C 275.12 60.25 274.92 57.19 275.55 53.54 C 277.71 54.85 280.15 56.11 283.37 57.17 C 283.35 60.75 283.72 64.04 284.46 67.04 C 282.09 66.39 279.39 65.23 275.86 62.92 Z M 276.24 51.15 C 277.22 47.88 278.88 45.15 281.03 42.81 C 282.58 43.84 283.98 44.39 285.42 45.03 C 284.22 48.24 283.7 51.82 283.51 54.8 C 281.22 53.99 278.93 53.15 276.24 51.15 Z M 282.67 41.05 C 285.12 39 287.49 37.64 289.83 36.78 C 288.64 38.17 287.41 39.94 286.15 42.69 C 284.84 42.14 283.65 41.59 282.67 41.05 Z M 272.99 65.98 L 255.03 65.98 C 252.62 65.98 250.3 64.04 250.3 61.3 L 250.3 5.01 C 250.3 2.48 252.59 0.41 254.88 0.41 L 302.56 0.41 C 304.9 0.41 307.18 2.5 307.18 4.96 L 307.18 33.8 C 303.62 32.38 299.1 31.62 294.16 32.27 L 294.16 31.96 C 294.14 31.46 293.78 30.85 293.01 30.85 L 286.99 30.85 C 286.28 30.85 285.86 31.43 285.86 31.98 L 285.86 34.47 C 285.88 34.58 285.9 34.69 285.94 34.8 C 283.45 36 281.35 37.64 279.83 39.06 L 275.14 39.06 C 274.43 39.06 274.02 39.61 274.02 40.17 L 274.02 42.62 C 274.02 43.29 274.54 43.73 275.14 43.73 L 275.82 43.73 C 271.42 50.49 270.51 59.02 272.99 65.98 Z M 296.53 22.65 C 297.18 22.65 297.7 22.23 297.7 21.48 L 297.7 8.57 C 297.7 8.04 297.32 7.43 296.59 7.43 L 260.93 7.43 C 260.52 7.43 259.78 7.68 259.78 8.62 L 259.78 21.55 C 259.78 22.26 260.37 22.65 260.93 22.65 Z M 233.68 65.34 C 231.69 64.81 230 63.28 230.02 60.17 C 230.46 42.3 231 24.43 230.02 6.17 C 230.08 4.09 230.63 2.23 233.29 1.19 C 235.69 0.17 241.41 0 244 1.39 C 245.96 2.34 246.84 4.15 246.81 6.62 C 246.26 24.95 246.24 43.08 246.73 61.01 C 246.51 63.72 244.77 65.21 241.74 65.64 C 238.91 66.2 236.15 66.03 233.68 65.34 Z M 281.16 35.53 C 281.73 35.53 282.31 35.14 282.31 34.41 L 282.31 31.96 C 282.31 31.46 281.93 30.85 281.16 30.85 L 275.14 30.85 C 274.43 30.85 274.02 31.41 274.02 31.98 L 274.02 34.43 C 274.02 35.1 274.54 35.53 275.14 35.53 Z M 269.31 35.53 C 269.88 35.53 270.44 35.14 270.44 34.41 L 270.44 31.96 C 270.44 31.46 270.07 30.85 269.31 30.85 L 263.29 30.85 C 262.58 30.85 262.17 31.41 262.17 31.98 L 262.17 34.43 C 262.17 35.1 262.69 35.53 263.29 35.53 Z M 269.31 43.73 C 269.88 43.73 270.44 43.34 270.44 42.61 L 270.44 40.17 C 270.44 39.66 270.07 39.06 269.31 39.06 L 263.29 39.06 C 262.58 39.06 262.17 39.61 262.17 40.17 L 262.17 42.62 C 262.17 43.29 262.69 43.73 263.29 43.73 Z M 269.31 51.94 C 269.88 51.94 270.44 51.54 270.44 50.8 L 270.44 48.37 C 270.44 47.85 270.07 47.26 269.31 47.26 L 263.29 47.26 C 262.58 47.26 262.17 47.81 262.17 48.37 L 262.17 50.82 C 262.17 51.51 262.69 51.94 263.29 51.94 Z" fill="#b6cdf0" stroke="none" pointer-events="all"/></g></g></g></g></g></svg>